<svg width="402" height="317" viewBox="0 0 402 317" fill="none" xmlns="http://www.w3.org/2000/svg">
<path d="M90.1694 248.744C93.2484 248.744 93.2531 243.953 90.1694 243.953C87.0857 243.953 87.081 248.744 90.1694 248.744Z" fill="#DCDDE8"/>
<path d="M61.7479 138.918C64.827 138.918 64.8316 134.127 61.7479 134.127C58.6642 134.127 58.6596 138.918 61.7479 138.918Z" fill="#DCDDE8"/>
<path d="M110.318 69.742C113.397 69.742 113.402 64.9468 110.318 64.9468C107.234 64.9468 107.234 69.742 110.318 69.742Z" fill="#DCDDE8"/>
<path d="M110.318 69.742C113.397 69.742 113.402 64.9468 110.318 64.9468C107.234 64.9468 107.234 69.742 110.318 69.742Z" fill="#DCDDE8"/>
<path d="M49.0058 246.028C52.0848 246.028 52.0941 241.237 49.0058 241.237C45.9174 241.237 45.9082 246.028 49.0058 246.028Z" fill="#DCDDE8"/>
<path d="M197.782 28.8968C200.861 28.8968 200.865 24.1016 197.782 24.1016C194.698 24.1016 194.693 28.8968 197.782 28.8968Z" fill="#DCDDE8"/>
<path d="M167.177 212.898C170.256 212.898 170.261 208.107 167.177 208.107C164.093 208.107 164.089 212.898 167.177 212.898Z" fill="#DCDDE8"/>
<path d="M85.323 119.764C88.402 119.764 88.4067 114.974 85.323 114.974C82.2393 114.974 82.2485 119.764 85.323 119.764Z" fill="#DCDDE8"/>
<path d="M106.57 272.023C109.65 272.023 109.654 267.228 106.57 267.228C103.487 267.228 103.482 272.023 106.57 272.023Z" fill="#DCDDE8"/>
<path d="M273.71 250.911C276.789 250.911 276.794 246.121 273.71 246.121C270.627 246.121 270.627 250.911 273.71 250.911Z" fill="#DCDDE8"/>
<path d="M282.614 63.7027C285.698 63.7027 285.702 58.9121 282.614 58.9121C279.526 58.9121 279.53 63.7027 282.614 63.7027Z" fill="#DCDDE8"/>
<path d="M345.689 212.898C348.768 212.898 348.773 208.107 345.689 208.107C342.606 208.107 342.606 212.898 345.689 212.898Z" fill="#DCDDE8"/>
<path d="M99.1129 214.49C100.652 214.49 100.652 212.095 99.1129 212.095C97.5734 212.095 97.5688 214.49 99.1129 214.49Z" fill="#DCDDE8"/>
<path d="M251.597 39.4202C253.136 39.4202 253.141 37.0249 251.597 37.0249C250.053 37.0249 250.057 39.4202 251.597 39.4202Z" fill="#DCDDE8"/>
<path d="M212.882 119.24C214.422 119.24 214.422 116.844 212.882 116.844C211.343 116.844 211.338 119.24 212.882 119.24Z" fill="#DCDDE8"/>
<path d="M232.645 219.661C234.185 219.661 234.19 217.266 232.645 217.266C231.101 217.266 231.101 219.661 232.645 219.661Z" fill="#DCDDE8"/>
<path d="M187.846 282.616C189.385 282.616 189.39 280.221 187.846 280.221C186.301 280.221 186.306 282.616 187.846 282.616Z" fill="#DCDDE8"/>
<path d="M324.826 280.894C326.366 280.894 326.366 278.499 324.826 278.499C323.287 278.499 323.282 280.894 324.826 280.894Z" fill="#DCDDE8"/>
<path d="M214.554 166.185C216.094 166.185 216.094 163.79 214.554 163.79C213.015 163.79 213.01 166.185 214.554 166.185Z" fill="#DCDDE8"/>
<path d="M145.068 34.6433C146.607 34.6433 146.612 32.248 145.068 32.248C143.523 32.248 143.523 34.6433 145.068 34.6433Z" fill="#DCDDE8"/>
<path d="M64.0582 193.243C65.5978 193.243 65.6024 190.848 64.0582 190.848C62.5141 190.848 62.5187 193.243 64.0582 193.243Z" fill="#DCDDE8"/>
<path d="M210.99 61.9344C212.53 61.9344 212.53 59.5391 210.99 59.5391C209.451 59.5391 209.446 61.9344 210.99 61.9344Z" fill="#DCDDE8"/>
<path d="M347.997 72.3694C349.541 72.3694 349.541 69.9741 347.997 69.9741C346.453 69.9741 346.458 72.3694 347.997 72.3694Z" fill="#DCDDE8"/>
<path d="M151.388 202.713C152.927 202.713 152.932 200.318 151.388 200.318C149.843 200.318 149.848 202.713 151.388 202.713Z" fill="#DCDDE8"/>
<path d="M279.786 185.324C281.326 185.324 281.326 182.929 279.786 182.929C278.246 182.929 278.242 185.324 279.786 185.324Z" fill="#DCDDE8"/>
<path d="M302.859 35.8689C304.399 35.8689 304.403 33.4736 302.859 33.4736C301.315 33.4736 301.32 35.8689 302.859 35.8689Z" fill="#DCDDE8"/>
<path d="M346.323 257.378C347.863 257.378 347.863 254.982 346.323 254.982C344.784 254.982 344.779 257.378 346.323 257.378Z" fill="#DCDDE8"/>
<path d="M175.186 61.5718V68.2099L171.805 69.6582C171.805 69.6582 172.895 86.4438 180.936 82.0385C188.977 77.6332 191.138 70.2338 189.417 69.6582L187.006 68.2099L186.718 61.8921L175.186 61.5718Z" fill="#FED4C0"/>
<path d="M265.602 94.5208L238.298 98.7311C237.063 98.9201 235.802 98.8293 234.607 98.4653C233.412 98.1014 232.314 97.4736 231.394 96.6282C218.247 84.4847 209.562 78.4083 204.285 75.377C199.555 72.6661 189.548 69.2402 189.548 69.2402L189.65 69.7509L189.446 69.6673C180.065 89.2149 171.825 69.6673 171.825 69.6673C171.825 69.6673 161.818 73.0885 157.088 75.8041C151.811 78.8353 143.126 84.9071 129.98 97.0553C129.058 97.9012 127.958 98.5289 126.761 98.8921C125.564 99.2552 124.301 99.3446 123.066 99.1535L95.7622 94.9478L90.309 108.841L121.841 117.276C124.088 117.877 126.438 117.985 128.73 117.595C131.023 117.205 133.204 116.325 135.127 115.015L155.345 101.196L155.433 100.899C155.85 116.385 157.046 133.305 157.046 133.305L157.427 140.969H203.756L203.779 140.542H203.863L204.243 132.878C204.243 132.878 205.44 115.958 205.857 100.472L205.945 100.769L226.237 114.607C228.159 115.917 230.341 116.797 232.634 117.187C234.926 117.577 237.276 117.468 239.522 116.868L271.055 108.433L265.602 94.5208Z" fill="#A1D0FB"/>
<path d="M192.441 47.0005C192.441 37.5261 187.386 29.8481 181.144 29.8481C174.903 29.8481 169.848 37.5261 169.848 47.0237H169.779C169.224 47.0021 168.672 47.1037 168.161 47.3214C167.651 47.539 167.195 47.8672 166.826 48.2823C166.457 48.6975 166.185 49.1892 166.029 49.7223C165.872 50.2554 165.836 50.8165 165.922 51.3652C166.009 51.914 166.215 52.4369 166.527 52.8961C166.84 53.3554 167.25 53.7398 167.728 54.0215C168.206 54.3032 168.741 54.4754 169.294 54.5256C169.846 54.5757 170.403 54.5027 170.924 54.3117C172.733 60.1189 176.614 64.1481 181.126 64.1481C185.638 64.1481 189.51 60.1281 191.328 54.3349C191.843 54.4942 192.386 54.5403 192.92 54.4702C193.455 54.4001 193.968 54.2154 194.424 53.9287C194.881 53.6419 195.271 53.26 195.566 52.8088C195.862 52.3577 196.057 51.848 196.138 51.3145C196.219 50.781 196.184 50.2364 196.035 49.7177C195.887 49.199 195.628 48.7185 195.277 48.3089C194.926 47.8994 194.491 47.5705 194.002 47.3447C193.512 47.1189 192.98 47.0015 192.441 47.0005Z" fill="#FED4C0"/>
<path d="M171.077 50.3523C171.077 50.3523 170.404 37.1364 175.097 34.2537C175.097 34.2537 176.818 32.0488 181.7 37.2246C186.583 42.4005 191.327 39.6246 191.327 39.6246C191.327 39.6246 192.519 48.5326 191.754 50.3523C191.754 50.3523 198.645 38.5662 191.081 32.5316C183.518 26.4969 179.405 28.5997 173.372 32.5316C173.372 32.5316 162.076 33.887 171.077 50.3523Z" fill="#2F2E41"/>
<path d="M175.579 61.9341C177.157 62.9594 178.97 63.562 180.847 63.6841C181.766 63.7271 182.687 63.6157 183.569 63.3545C184.023 63.2277 184.469 63.0727 184.905 62.8903C185.368 62.7139 185.758 62.4726 186.222 62.2915C185.866 62.6267 185.488 62.9369 185.09 63.2199C184.675 63.4977 184.234 63.734 183.773 63.9255C182.84 64.3247 181.829 64.5088 180.815 64.464C179.802 64.4205 178.809 64.1676 177.898 63.7213C177.008 63.2954 176.218 62.6864 175.579 61.9341Z" fill="#F9C0AA"/>
<path d="M158.789 140.951V272.803H176.401L178.696 157.815H183.292L192.098 272.803H209.709L202.054 140.951H158.789Z" fill="#DCDDE8"/>
<path d="M195.928 277.403C195.928 277.403 191.142 290.819 195.163 292.722H199.183C199.183 292.722 201.094 287.356 203.774 292.722H228.281C228.281 292.722 229.811 288.507 223.876 286.59C217.94 284.673 207.989 277.389 207.989 277.389L195.928 277.403Z" fill="#DCDDE8"/>
<path d="M195.164 272.803L195.929 277.403H207.99V272.803H195.164Z" fill="#FED4C0"/>
<path d="M173.429 277.403C173.429 277.403 178.214 290.819 174.194 292.722H170.183C170.183 292.722 168.268 287.356 165.587 292.722H141.085C141.085 292.722 139.555 288.507 145.485 286.59C151.416 284.673 161.372 277.403 161.372 277.403H173.429Z" fill="#DCDDE8"/>
<path d="M174.202 272.803L173.437 277.403H161.376V272.803H174.202Z" fill="#FED4C0"/>
<g opacity="0.2">
<path d="M184.878 157.491C183.598 157.771 182.289 157.903 180.978 157.885C179.667 157.906 178.359 157.773 177.078 157.491C178.358 157.204 179.667 157.07 180.978 157.092C182.289 157.073 183.598 157.207 184.878 157.491Z" fill="black"/>
</g>
<g opacity="0.2">
<path d="M158.389 118.042C158.566 119.263 158.837 120.467 159.201 121.645C159.363 122.239 159.581 122.815 159.771 123.395L160.467 125.094C161.457 127.323 162.788 129.384 164.413 131.203C166.016 133.036 167.916 134.586 170.033 135.789C171.083 136.419 172.18 136.963 173.316 137.418C174.443 137.915 175.635 138.212 176.803 138.658C176.201 138.532 175.593 138.402 174.99 138.259L174.063 138.05L173.599 137.943L173.159 137.79C171.974 137.393 170.822 136.904 169.713 136.327C167.462 135.193 165.451 133.632 163.792 131.732C162.12 129.853 160.803 127.685 159.906 125.335C158.977 123.012 158.464 120.544 158.389 118.042Z" fill="black"/>
</g>
<g opacity="0.2">
<path d="M163.9 120.178C164.325 121.336 164.84 122.46 165.439 123.539C165.722 124.082 166.056 124.602 166.367 125.131L167.406 126.649C168.827 128.621 170.547 130.361 172.502 131.806C174.465 133.268 176.659 134.388 178.994 135.12C180.152 135.522 181.339 135.832 182.546 136.049C183.747 136.3 184.985 136.341 186.214 136.536C185.592 136.536 184.976 136.536 184.359 136.536H183.431H182.968L182.504 136.476C181.263 136.339 180.034 136.101 178.831 135.766C176.395 135.127 174.104 134.024 172.084 132.516C170.052 131.025 168.305 129.179 166.928 127.067C165.522 124.966 164.497 122.634 163.9 120.178Z" fill="black"/>
</g>
<g opacity="0.2">
<path d="M197.778 88.1938H184.247V105.091H197.778V88.1938Z" fill="black"/>
</g>
<path d="M314.634 61.5537V68.981L317.69 69.6494C317.69 69.6494 316.925 86.4211 308.879 82.0112C300.834 77.6012 298.348 70.225 300.069 69.6494L302.749 68.786L303.092 61.8647L314.634 61.5537Z" fill="#B86A4B"/>
<path d="M297.397 46.9819C297.397 37.5075 302.452 29.8296 308.693 29.8296C314.935 29.8296 319.985 37.5075 319.985 46.9819H320.059C321.055 46.9819 322.01 47.3781 322.715 48.0832C323.419 48.7884 323.815 49.7447 323.815 50.742C323.815 51.7392 323.419 52.6956 322.715 53.4007C322.01 54.1059 321.055 54.502 320.059 54.502C319.662 54.4988 319.269 54.4298 318.895 54.2978C317.086 60.1049 313.2 64.1342 308.693 64.1342C304.186 64.1342 300.305 60.1142 298.492 54.321C297.977 54.4778 297.434 54.5218 296.9 54.4498C296.367 54.3779 295.855 54.1917 295.4 53.9039C294.945 53.6162 294.557 53.2336 294.263 52.7824C293.969 52.3311 293.775 51.8216 293.695 51.2887C293.616 50.7558 293.651 50.2119 293.8 49.6941C293.949 49.1763 294.208 48.6968 294.559 48.2881C294.91 47.8794 295.345 47.5512 295.834 47.3258C296.322 47.1004 296.854 46.9831 297.393 46.9819H297.397Z" fill="#B86A4B"/>
<path d="M318.741 50.3333C318.741 50.3333 319.414 37.136 314.721 34.2347C314.721 34.2347 313 32.0297 308.118 37.2056C303.235 42.3815 298.491 39.6055 298.491 39.6055C298.491 39.6055 297.299 48.5136 298.064 50.3333C298.064 50.3333 291.174 38.5472 298.737 32.5125C306.3 26.4779 310.413 28.5807 316.446 32.5125C316.446 32.4939 327.737 33.8541 318.741 50.3333Z" fill="#2F2E41"/>
<path d="M314.24 61.9155C313.604 62.6752 312.814 63.2907 311.922 63.7213C311.013 64.168 310.021 64.4209 309.01 64.464C307.996 64.5088 306.985 64.3248 306.051 63.9255C305.589 63.7359 305.148 63.4994 304.734 63.2199C304.336 62.9369 303.958 62.6267 303.603 62.2915C304.067 62.4726 304.479 62.714 304.92 62.8904C305.355 63.0734 305.801 63.2284 306.255 63.3546C307.138 63.616 308.058 63.7274 308.977 63.6841C310.854 63.5556 312.666 62.9466 314.24 61.9155Z" fill="#B2593D"/>
<path d="M347.873 152.338L350.901 170.061C351.063 171.011 351.028 171.985 350.798 172.921C350.567 173.857 350.146 174.736 349.56 175.501L343.486 183.444C343.323 183.658 343.113 183.832 342.871 183.95C342.63 184.069 342.364 184.129 342.095 184.126C341.635 184.126 341.194 183.943 340.868 183.618C340.543 183.292 340.36 182.851 340.36 182.39C340.361 181.482 340.665 180.6 341.223 179.883L345.86 173.895C345.86 173.895 345.243 165.707 345.109 166.932L342.693 170.873C342.581 171.054 342.425 171.204 342.24 171.308C342.055 171.413 341.846 171.469 341.634 171.472C341.421 171.475 341.212 171.424 341.024 171.324C340.836 171.224 340.677 171.079 340.56 170.901C340.414 170.678 340.341 170.415 340.351 170.149C340.412 169.163 340.691 168.202 341.167 167.336L341.84 166.111C341.84 166.111 340.337 156.97 342.248 152.333L347.873 152.338Z" fill="#B86A4B"/>
<path d="M307.637 85.5059L309.668 92.3436L287.526 121.463C284.09 126.082 277.621 125.859 274.741 120.07C274.741 120.07 274.523 115.837 275.103 114.588C277.69 108.99 280.519 108.289 284.998 104.529L307.637 85.5059Z" fill="#8C4D3E"/>
<path d="M308.433 86.3052L310.464 93.1429L288.322 122.262C284.886 126.881 278.417 126.658 275.537 120.87C275.537 120.87 275.319 116.636 275.899 115.388C278.487 109.789 281.315 109.088 285.795 105.328L308.433 86.3052Z" fill="#8C4D3E"/>
<path d="M257.36 104.195C257.36 104.195 257.207 101.122 252.426 96.3037C247.645 91.4853 243.369 88.2173 245.878 92.2883L247.84 95.3613C247.84 95.3613 242.739 93.4488 239.794 92.0423C239.02 91.6578 238.142 91.5319 237.291 91.6831C236.44 91.8343 235.659 92.2547 235.064 92.8825C233.979 94.0848 234.026 95.3892 237.091 97.6592C241.681 101.057 248.785 106.228 250.163 106.734C250.645 106.915 257.36 104.195 257.36 104.195Z" fill="#B86A4B"/>
<path d="M285.91 140.951H332.045L332.43 133.287L338.922 159.746L350.979 157.829C347.663 118.836 339.965 93.6206 335.931 82.5911C335.206 80.6055 334.076 78.7924 332.613 77.2669C331.151 75.7414 329.388 74.5368 327.436 73.7295L317.665 69.6724C317.665 69.6724 309.434 89.22 300.044 69.6724L290.274 73.7295C286.328 75.3635 281.218 78.4644 279.752 82.4844C277.958 87.4606 274.517 98.4112 271.943 103.49C271.773 103.822 271.532 104.112 271.237 104.341C270.942 104.57 270.601 104.731 270.237 104.814C269.874 104.897 269.496 104.899 269.132 104.82C268.767 104.741 268.424 104.583 268.127 104.358L253.622 95.6956L248.057 106.484L266.546 121.853C268.996 123.543 272.011 124.201 274.942 123.686C277.872 123.17 280.483 121.521 282.21 119.096L285.354 114.695L285.734 140.951H331.874" fill="#A1D0FB"/>
<path d="M250.837 96.7681C250.294 96.6464 249.768 96.461 249.269 96.2157C248.768 95.9808 248.291 95.6962 247.846 95.3662C248.128 95.3903 248.407 95.4479 248.676 95.538C248.939 95.62 249.196 95.7208 249.446 95.8397C249.955 96.075 250.424 96.3882 250.837 96.7681Z" fill="#160B07"/>
<path d="M243.806 95.9092C243.159 95.6976 242.524 95.4496 241.905 95.1665C241.284 94.8926 240.681 94.577 240.087 94.2381C239.491 93.9059 238.915 93.5386 238.362 93.1379C237.803 92.7446 237.289 92.2917 236.827 91.7871C237.954 92.553 239.113 93.2122 240.291 93.876C241.469 94.5398 242.642 95.1944 243.806 95.9092Z" fill="#160B07"/>
<path d="M241.052 98.6801C240.446 98.5362 239.852 98.3453 239.276 98.1091C238.694 97.8812 238.127 97.6176 237.578 97.32C236.466 96.7412 235.46 95.9784 234.601 95.064C235.13 95.4028 235.645 95.7371 236.173 96.0481C236.702 96.3591 237.235 96.6655 237.778 96.9765L241.052 98.6801Z" fill="#160B07"/>
<path d="M242.563 97.4826C241.842 97.2932 241.136 97.0544 240.448 96.7677C239.756 96.488 239.08 96.1671 238.426 95.8068C237.773 95.4481 237.153 95.0334 236.571 94.5674C235.964 94.1174 235.46 93.543 235.092 92.8823C235.576 93.4366 236.138 93.9168 236.762 94.3074C237.374 94.7113 238 95.0919 238.649 95.4401C239.91 96.1642 241.236 96.8048 242.563 97.4826Z" fill="#160B07"/>
<path d="M259.81 269.633L261.456 279.237L273.304 288.006C273.304 288.006 259.392 293.033 252.344 285.56L253.777 278.949L250.475 270.468L259.81 269.633Z" fill="#8C4D3E"/>
<path d="M215.918 269.633L215.867 279.237L204.033 288.006C204.033 288.006 217.945 293.033 224.993 285.56L223.56 278.949L225.267 270.468L215.918 269.633Z" fill="#8C4D3E"/>
<path d="M237.421 129.545L231.616 139.944C227.605 147.134 224.915 154.985 223.672 163.126L207.614 272.214L266.695 270.468L270.048 166.997C270.445 157.771 268.724 148.576 265.017 140.12C263.373 136.29 261.169 132.727 258.478 129.545H237.421Z" fill="#A1D0FB"/>
<path d="M231.141 59.5016C231.239 60.8524 231.753 60.8942 232.069 62.3982C232.532 64.5753 231.559 65.0302 232.018 66.7756C232.282 67.7644 232.62 67.704 234.336 70.1922C236.126 72.7407 235.727 72.7406 236.678 73.7619C238.338 75.5584 239.089 75.0477 240.972 76.9835C242.219 78.2647 242.076 78.6825 243.453 79.9451C244 80.4511 244.227 80.5671 246.36 81.9922C249.898 84.3504 250.116 84.5778 250.946 84.7774C252.237 84.9966 253.562 84.9027 254.809 84.5036C256.2 84.1461 256.242 83.8444 258.593 82.9438C260.944 82.0433 261.148 82.2707 262.034 81.658C263.365 80.7296 263.082 80.1354 264.682 78.7289C266.189 77.4013 266.611 77.8005 267.496 76.7049C268.632 75.3123 268.062 74.5464 269.231 73.3441C270.116 72.4157 270.645 72.671 271.605 71.6312C272.235 70.9395 272.277 70.545 272.908 69.338C274.192 66.8824 274.763 67.1516 275.532 65.3552C275.945 64.3896 275.681 64.5567 276.502 61.558C277.151 59.1766 277.271 59.237 277.336 58.471C277.522 56.15 276.372 56.0015 276.789 54.2932C277.04 53.2673 277.717 52.1904 277.341 50.742C276.965 48.0357 276.687 46.0536 275.203 44.22C274.396 43.2266 274.276 43.5283 271.813 41.1284C270.269 39.6058 269.959 39.1045 268.892 38.4778C267.501 37.6561 267.269 38.0136 265.544 37.1966C263.309 36.1103 263.365 35.3073 261.57 34.7177C260.383 34.3324 260.374 34.6852 258.092 34.3464C255.199 33.9193 255.101 33.3344 253.645 33.4783C252.092 33.6315 251.916 34.3324 249.667 34.9916C247.784 35.544 247.492 34.9916 246.059 35.5394C244.626 36.0871 244.733 36.6117 242.938 37.5587C240.814 38.682 240.198 38.1807 239.205 39.1509C238.213 40.1211 238.714 40.7384 237.629 42.6603C236.738 44.2293 236.307 44.0018 234.846 46.0443C234.014 47.2535 233.287 48.5316 232.671 49.8647C231.883 51.4291 231.484 52.2321 231.387 53.0631C231.229 54.4046 231.684 54.5485 231.61 56.2289C231.554 57.9743 231.044 58.1414 231.141 59.5016Z" fill="#2F2E41"/>
<path d="M241.469 65.485H241.511C241.775 57.8164 246.612 51.6564 252.737 51.5218C258.863 51.3872 263.969 57.3104 264.581 64.9605H264.627C266.482 64.9187 268.012 66.5573 268.059 68.6184C268.105 70.6795 266.644 72.3877 264.813 72.4342C264.451 72.434 264.091 72.3712 263.751 72.2485C262.475 76.0549 259.981 79.0398 256.869 80.3674L256.962 89.8604L256.545 96.8234L247.006 96.1271L247.201 90.0925L247.952 79.5365H247.98C245.547 77.8813 243.699 75.4998 242.698 72.7312C242.363 72.8721 242.004 72.9508 241.641 72.9633C239.786 73.0051 238.256 71.3665 238.209 69.3054C238.163 67.2444 239.619 65.5315 241.469 65.485Z" fill="#8C4D3E"/>
<path d="M218.834 161.167L217.142 173.724C217.054 174.404 217.121 175.095 217.337 175.746C217.553 176.397 217.913 176.991 218.389 177.484L223.393 182.803C223.533 182.949 223.704 183.063 223.893 183.136C224.082 183.209 224.285 183.239 224.487 183.226C224.827 183.223 225.153 183.086 225.393 182.845C225.632 182.603 225.767 182.276 225.767 181.935C225.729 181.288 225.459 180.677 225.006 180.213L221.19 176.207C221.19 176.207 221.362 170.437 221.515 171.296L223.532 173.96C223.634 174.084 223.763 174.183 223.91 174.248C224.057 174.314 224.216 174.345 224.377 174.338C224.537 174.331 224.694 174.287 224.834 174.21C224.975 174.132 225.096 174.023 225.187 173.891C225.295 173.733 225.342 173.542 225.322 173.352C225.235 172.658 224.984 171.994 224.589 171.417L224.019 170.586C224.019 170.586 224.844 164.115 223.189 160.939L218.834 161.167Z" fill="#8C4D3E"/>
<path d="M221.51 119.713L218.088 167.109L223.889 164.495L231.276 123.989L221.51 119.713Z" fill="#8C4D3E"/>
<path d="M220.695 127.294L222.629 102.004C222.79 99.8917 223.45 97.8481 224.556 96.0417C225.661 94.2354 227.18 92.7181 228.986 91.615C231.104 90.3153 233.401 89.3332 235.803 88.6998C239.523 87.8155 243.335 87.373 247.159 87.3815C247.159 87.3815 251.18 98.4991 256.92 87.3815L264.859 90.0553C267.137 90.8246 269.232 92.0543 271.015 93.6682C272.798 95.282 274.23 97.2456 275.223 99.4368L283.792 113.544L276.971 121.9L265.443 113.915L258.488 129.545H237.421L232.784 113.544L231.087 127.294H220.695Z" fill="#DCDDE8"/>
<path d="M132.218 53.9916C131.754 61.6603 120.106 61.0104 120.5 53.3371C120.894 45.6638 132.621 46.3183 132.218 53.9916Z" fill="#2F2E41"/>
<path d="M105.727 55.1889C105.263 62.8575 93.615 62.2076 94.0092 54.5343C94.4033 46.8611 106.126 47.5156 105.727 55.1889Z" fill="#2F2E41"/>
<path d="M125.737 67.3513H125.695C125.695 49.3635 104.638 48.203 102.653 66.0701C97.6218 65.7081 98.2246 74.89 103.265 73.3767C103.729 78.1069 104.921 81.0546 109.808 83.1853C109.548 86.899 109.409 94.4608 109.646 98.1745L119.208 97.7938L119.555 91.5317L118.851 83.0461C122.797 82.048 124.197 76.2594 124.276 74.5419C129.099 76.5936 130.735 67.6252 125.737 67.3513Z" fill="#B86A4B"/>
<path d="M110.985 83.909C113.28 83.909 115.367 84.1225 117.57 83.4819C115.882 85.1716 112.951 85.037 110.985 83.909Z" fill="#B2593D"/>
<path d="M105.851 60.0074C109.315 60.0585 108.759 57.4775 109.199 55.3654C109.199 55.3654 111.258 60.1281 115.353 55.7089C116.28 54.7016 115.761 62.2959 120.542 56.9947C121.756 55.8296 122.86 62.6766 124.975 62.3006L124.905 69.0919C138.784 43.4864 86.1804 41.611 103.82 70.076C103.82 70.0946 101.947 59.9517 105.851 60.0074Z" fill="#2F2E41"/>
<path d="M112.798 49.8881L111.129 47.5671C111.129 47.5671 107.15 47.9941 109.459 46.5365C111.769 45.0789 112.209 46.258 112.181 46.6897L112.798 49.8881Z" fill="#2F2E41"/>
<path d="M147.669 162.736C147.534 165.702 151.035 176.792 148.132 179.053L143.124 184.372C141.195 185.886 139.906 183.133 141.511 181.777L145.35 177.771C145.35 177.771 145.179 172.006 145.026 172.86L143.008 175.525C142.484 176.253 141.13 175.854 141.218 174.921C141.297 173.914 141.937 172.962 142.521 172.136C142.521 172.136 141.696 165.665 143.352 162.49L147.669 162.736Z" fill="#B86A4B"/>
<path d="M144.998 121.278L148.415 168.673L142.614 166.06L135.227 125.558L144.998 121.278Z" fill="#B86A4B"/>
<path d="M130.598 140.098L129.834 140.329L129.95 140.711L130.713 140.48L130.598 140.098Z" fill="#200100"/>
<path d="M133.346 151.966L133.1 151.163L133.865 150.931L134.107 151.734L133.346 151.966ZM132.859 150.36L132.618 149.557L133.378 149.325L133.624 150.128L132.859 150.36ZM132.372 148.754L132.131 147.951L132.892 147.719L133.137 148.522L132.372 148.754ZM131.908 147.148L131.667 146.345L132.428 146.113L132.674 146.916L131.908 147.148ZM131.422 145.542L131.18 144.739L131.946 144.507L132.159 145.296L131.422 145.542ZM130.935 143.936L130.694 143.133L131.459 142.901L131.7 143.704L130.935 143.936ZM130.471 142.33L130.225 141.527L130.99 141.294L131.231 142.097L130.471 142.33Z" fill="#200100"/>
<path d="M134.647 153.159L133.881 153.39L133.997 153.773L134.762 153.542L134.647 153.159Z" fill="#200100"/>
<path d="M145.81 128.859C143.028 106.735 149.983 89.2248 119.332 88.937C119.332 88.937 115.311 100.05 109.594 88.937L101.669 91.6062C92.5292 94.0293 87.7576 108.22 82.7449 115.095V131.732L101.085 115.485L108.045 131.11H129.098L133.735 115.109L135.432 128.859H145.81Z" fill="#DCDDE8"/>
<g opacity="0.2">
<path d="M96.7455 106.767C98.6637 109.406 100.123 112.35 101.063 115.475C99.1417 112.838 97.6819 109.893 96.7455 106.767Z" fill="black"/>
</g>
<g opacity="0.2">
<path d="M133.749 115.123C134.35 111.245 135.491 107.472 137.139 103.912C136.538 107.789 135.397 111.563 133.749 115.123Z" fill="black"/>
</g>
<path d="M79.9434 85.5249L73.9661 89.4149L71.9629 125.952C71.879 127.238 72.1662 128.521 72.7901 129.648C73.4141 130.776 74.3486 131.699 75.4822 132.31C76.6159 132.92 77.901 133.192 79.1844 133.092C80.4678 132.992 81.6954 132.524 82.721 131.746C88.8884 120.916 81.0655 96.9582 79.9434 85.5249Z" fill="#B86A4B"/>
<path d="M80.5418 91.9958C80.5418 91.9958 82.1137 89.6748 81.2976 83.5891C80.4815 77.5034 79.1877 72.7732 78.7657 77.0903L78.5014 80.3907C78.5014 80.3907 75.8583 76.2129 74.5042 73.5716C72.6957 70.4568 67.3445 70.4521 69.4776 76.1479C70.929 81.1195 73.2244 88.7557 73.9431 89.8791C74.1935 90.269 80.5418 91.9958 80.5418 91.9958Z" fill="#B86A4B"/>
<path d="M79.8937 83.0412C79.254 82.2621 78.7805 81.36 78.5026 80.3906C79.2254 81.1115 79.7108 82.0364 79.8937 83.0412Z" fill="#B2593D"/>
<path d="M134.941 279.075C136.425 250.192 139.245 183.741 138.651 155.495C140.798 159.208 139.189 149.98 135.428 141.568C133.794 137.735 131.598 134.166 128.913 130.98H107.847C101.883 141.234 95.5351 152.64 94.0976 164.565L79.3932 272.051L78.1922 279.075L66.3397 287.844C66.3397 287.844 80.2511 292.876 87.3042 285.397L85.8713 278.787L117.01 156.855H118.15L127.267 278.787L125.834 285.397C132.869 292.876 146.798 287.844 146.798 287.844L134.941 279.075Z" fill="#B86A4B"/>
<path d="M151.389 292.732C151.389 292.732 135.738 293.024 132.006 289.482V292.732H125.115C125.115 292.732 122.949 281.192 126.617 281.786C130.285 282.38 143.339 292.351 143.631 285.499C146.339 287.068 151.903 288.637 151.389 292.732Z" fill="#2F2E41"/>
<path d="M107.934 130.98L102.129 141.382C90.341 159.793 91.5281 185.751 88.5371 201.497H139.351C139.661 179.716 145.18 148.67 128.991 130.961L107.934 130.98Z" fill="#A1D0FB"/>
<path d="M61.7479 292.732C61.7479 292.732 77.3982 293.024 81.1311 289.482V292.732H88.0218C88.0218 292.732 90.1874 281.192 86.5194 281.786C82.8514 282.38 69.7979 292.351 69.5058 285.499C66.7977 287.068 61.2332 288.637 61.7479 292.732Z" fill="#2F2E41"/>
<path d="M255.63 80.7993C255.12 81.0878 254.565 81.2886 253.989 81.3935C253.415 81.5089 252.829 81.5525 252.245 81.5235C251.654 81.4879 251.071 81.3643 250.516 81.1567C249.959 80.943 249.46 80.6011 249.059 80.1587C249.63 80.3212 250.149 80.4604 250.682 80.5579C251.216 80.6554 251.749 80.6972 252.292 80.7297C253.377 80.7714 254.462 80.7714 255.63 80.7993Z" fill="#874032"/>
<g opacity="0.2">
<path d="M258.751 40.887C258.594 40.8881 258.438 40.8662 258.287 40.822C257.216 40.5249 256.706 39.2762 256.683 39.2205C256.663 39.1721 256.654 39.1203 256.654 39.0681C256.655 39.0159 256.666 38.9643 256.687 38.9164C256.707 38.8684 256.737 38.8251 256.775 38.7889C256.812 38.7526 256.857 38.7242 256.905 38.7053C257.003 38.6654 257.113 38.666 257.21 38.7069C257.307 38.7478 257.385 38.8257 257.425 38.9234C257.425 38.9234 257.814 39.8519 258.505 40.0561C258.716 40.0929 258.932 40.0807 259.137 40.0203C259.342 39.9599 259.531 39.853 259.688 39.7079C259.729 39.6761 259.777 39.6529 259.827 39.6397C259.878 39.6264 259.931 39.6233 259.982 39.6307C260.034 39.638 260.084 39.6556 260.129 39.6824C260.174 39.7092 260.213 39.7447 260.244 39.7869C260.276 39.8288 260.299 39.8767 260.313 39.9277C260.326 39.9788 260.329 40.0319 260.322 40.0842C260.314 40.1364 260.297 40.1866 260.27 40.232C260.243 40.2774 260.207 40.317 260.165 40.3485C259.765 40.678 259.268 40.8671 258.751 40.887Z" fill="black"/>
</g>
<g opacity="0.2">
<path d="M271.27 47.7618C270.623 47.7192 270.004 47.4777 269.499 47.0701C269.417 47.0024 269.366 46.905 269.356 46.7992C269.346 46.6934 269.378 46.588 269.446 46.5061C269.513 46.4243 269.611 46.3726 269.716 46.3626C269.822 46.3526 269.927 46.385 270.009 46.4528C270.009 46.4528 270.797 47.098 271.498 46.917C271.702 46.8514 271.887 46.7386 272.039 46.5878C272.192 46.437 272.306 46.2523 272.374 46.0489C272.419 45.9538 272.5 45.8802 272.599 45.8437C272.697 45.8073 272.807 45.811 272.903 45.8539C272.999 45.8983 273.073 45.979 273.109 46.0782C273.146 46.1774 273.142 46.2871 273.097 46.3831C272.982 46.6998 272.792 46.9842 272.545 47.2127C272.297 47.4412 271.998 47.6072 271.674 47.6968C271.542 47.7343 271.407 47.7561 271.27 47.7618Z" fill="black"/>
</g>
<g opacity="0.2">
<path d="M263.658 51.6755C263.012 51.6334 262.394 51.3918 261.891 50.9838C261.811 50.9153 261.761 50.8183 261.752 50.7133C261.742 50.6084 261.774 50.5039 261.84 50.4221C261.908 50.341 262.005 50.29 262.11 50.2804C262.215 50.2708 262.32 50.3034 262.401 50.3711C262.401 50.3711 263.194 51.007 263.89 50.8353C264.093 50.7677 264.277 50.6543 264.429 50.5037C264.581 50.3532 264.697 50.1696 264.766 49.9672C264.813 49.8761 264.894 49.8067 264.991 49.7735C265.088 49.7402 265.194 49.7457 265.287 49.7887C265.38 49.8317 265.453 49.909 265.491 50.0045C265.529 50.1 265.528 50.2063 265.49 50.3014C265.373 50.6184 265.183 50.903 264.934 51.1314C264.686 51.3599 264.387 51.5258 264.061 51.6151C263.93 51.6513 263.794 51.6715 263.658 51.6755Z" fill="black"/>
</g>
<path d="M252.812 55.24C252.166 55.198 251.548 54.9563 251.045 54.5483L251.555 53.9356C251.555 53.9356 252.344 54.5762 253.044 54.3998C253.247 54.3323 253.431 54.2188 253.583 54.0683C253.735 53.9177 253.851 53.7341 253.92 53.5317L254.644 53.866C254.528 54.1833 254.338 54.4683 254.089 54.6968C253.841 54.9254 253.541 55.091 253.215 55.1797C253.084 55.2158 252.948 55.2361 252.812 55.24Z" fill="#560D0D"/>
<g opacity="0.2">
<path d="M268.107 59.4968C267.933 59.4972 267.76 59.4722 267.593 59.4226C266.531 59.093 266.053 57.8303 266.035 57.7746C266.003 57.6769 266.011 57.5707 266.056 57.4784C266.1 57.386 266.179 57.3144 266.275 57.2786C266.371 57.2427 266.477 57.2453 266.572 57.2858C266.666 57.3263 266.741 57.4016 266.781 57.4961C266.781 57.4961 267.148 58.4245 267.834 58.6566C268.043 58.7024 268.26 58.6981 268.467 58.644C268.674 58.59 268.865 58.4877 269.026 58.3456C269.112 58.284 269.219 58.2592 269.323 58.2767C269.427 58.2941 269.521 58.3523 269.582 58.4384C269.644 58.5246 269.668 58.6317 269.651 58.7362C269.634 58.8407 269.575 58.9339 269.489 58.9955C269.093 59.3039 268.609 59.4793 268.107 59.4968Z" fill="black"/>
</g>
<g opacity="0.2">
<path d="M248.363 38.5705C248.189 38.5723 248.015 38.5456 247.849 38.4916C246.787 38.1667 246.304 36.904 246.286 36.8483C246.267 36.7993 246.259 36.7471 246.261 36.6947C246.263 36.6424 246.275 36.5909 246.297 36.5434C246.319 36.4959 246.35 36.4532 246.389 36.4179C246.428 36.3826 246.473 36.3553 246.522 36.3377C246.621 36.3013 246.731 36.3052 246.827 36.3486C246.923 36.392 246.999 36.4714 247.037 36.5698C247.037 36.5698 247.399 37.4982 248.085 37.7303C248.295 37.7729 248.511 37.7666 248.718 37.7119C248.924 37.6571 249.116 37.5554 249.277 37.4147C249.364 37.3531 249.471 37.3285 249.576 37.3464C249.681 37.3642 249.774 37.423 249.836 37.5098C249.897 37.5966 249.922 37.7043 249.904 37.8092C249.886 37.9141 249.827 38.0076 249.741 38.0692C249.345 38.3769 248.864 38.5523 248.363 38.5705Z" fill="black"/>
</g>
<g opacity="0.2">
<path d="M237.067 49.498C236.893 49.4975 236.719 49.4709 236.553 49.4191C235.491 49.0895 235.013 47.8269 234.99 47.7712C234.953 47.6715 234.957 47.5611 235.002 47.4645C235.046 47.3679 235.127 47.2929 235.226 47.2559C235.326 47.219 235.436 47.2232 235.533 47.2676C235.629 47.312 235.704 47.3929 235.741 47.4927C235.741 47.4927 236.103 48.4211 236.789 48.6578C236.999 48.7004 237.215 48.6941 237.422 48.6393C237.628 48.5846 237.82 48.4829 237.981 48.3422C238.023 48.3117 238.072 48.2899 238.123 48.2781C238.174 48.2662 238.227 48.2646 238.278 48.2732C238.33 48.2818 238.379 48.3006 238.424 48.3283C238.468 48.3561 238.507 48.3923 238.537 48.435C238.568 48.4777 238.589 48.5259 238.601 48.577C238.613 48.6281 238.615 48.681 238.606 48.7327C238.598 48.7845 238.579 48.834 238.551 48.8785C238.523 48.923 238.487 48.9616 238.445 48.992C238.05 49.3009 237.568 49.4779 237.067 49.498Z" fill="black"/>
</g>
<g opacity="0.2">
<path d="M235.91 60.7087C235.735 60.7098 235.562 60.6831 235.395 60.6298C234.333 60.3049 233.856 59.0376 233.837 58.9865C233.806 58.8888 233.813 58.7827 233.858 58.6903C233.903 58.5979 233.982 58.5263 234.078 58.4905C234.174 58.4546 234.28 58.4572 234.374 58.4977C234.469 58.5382 234.544 58.6136 234.584 58.708C234.584 58.708 234.95 59.6596 235.636 59.8685C235.846 59.9117 236.062 59.9062 236.269 59.8522C236.475 59.7983 236.667 59.6975 236.828 59.5575C236.871 59.527 236.919 59.5053 236.97 59.4934C237.021 59.4816 237.074 59.4799 237.126 59.4886C237.177 59.4972 237.227 59.5159 237.271 59.5437C237.316 59.5714 237.354 59.6077 237.385 59.6504C237.415 59.693 237.437 59.7413 237.449 59.7924C237.46 59.8435 237.462 59.8964 237.453 59.9481C237.445 59.9998 237.426 60.0494 237.398 60.0938C237.371 60.1383 237.334 60.1769 237.292 60.2074C236.895 60.5158 236.412 60.6912 235.91 60.7087Z" fill="black"/>
</g>
<g opacity="0.2">
<path d="M246.288 46.7541C245.572 46.691 244.903 46.3732 244.401 45.8582C244.327 45.7819 244.287 45.6794 244.288 45.5731C244.29 45.4669 244.334 45.3658 244.41 45.2919C244.486 45.218 244.589 45.1775 244.695 45.1793C244.801 45.181 244.902 45.2249 244.976 45.3012C244.976 45.3012 245.695 46.0161 246.399 45.9464C246.609 45.9021 246.805 45.8099 246.974 45.677C247.142 45.5441 247.277 45.3742 247.369 45.1805C247.426 45.0948 247.513 45.0345 247.614 45.012C247.714 44.9896 247.819 45.0069 247.907 45.0602C247.995 45.1135 248.059 45.1987 248.086 45.2981C248.112 45.3975 248.1 45.5034 248.05 45.5936C247.9 45.8954 247.679 46.1568 247.407 46.3562C247.136 46.5556 246.82 46.6872 246.488 46.7402L246.288 46.7541Z" fill="black"/>
</g>
<path d="M263.751 60.7685C263.751 60.7685 259.911 59.84 258.812 53.5547C258.812 53.5547 258.478 61.2559 242.392 60.476L242.244 67.2673L238.534 61.9986C238.534 61.9986 242.244 47.8311 254.931 49.2701C256.964 49.5616 258.892 50.3597 260.537 51.5911C262.561 53.0546 264.256 54.9257 265.514 57.0843C266.772 59.2428 267.564 61.641 267.841 64.1246L268.008 65.4848C268.008 65.4848 265.262 61.0841 263.301 68.9663L263.751 60.7685Z" fill="#2F2E41"/>
<g opacity="0.2">
<path d="M242.915 54.9015C242.268 54.8607 241.651 54.6189 241.148 54.2099C241.072 54.1406 241.026 54.0447 241.019 53.9422C241.012 53.8397 241.045 53.7384 241.111 53.6594C241.176 53.5805 241.27 53.53 241.372 53.5184C241.474 53.5067 241.576 53.535 241.658 53.5971C241.658 53.5971 242.446 54.2424 243.147 54.0613C243.35 53.9938 243.534 53.8803 243.686 53.7298C243.838 53.5793 243.953 53.3957 244.023 53.1933C244.07 53.1022 244.151 53.0328 244.248 52.9995C244.345 52.9663 244.451 52.9717 244.544 53.0148C244.637 53.0578 244.71 53.1351 244.748 53.2306C244.786 53.326 244.785 53.4324 244.746 53.5275C244.63 53.8445 244.44 54.129 244.191 54.3575C243.943 54.586 243.644 54.7518 243.318 54.8412C243.187 54.8773 243.051 54.8976 242.915 54.9015Z" fill="black"/>
</g>
<g opacity="0.2">
<path d="M253.995 54.6508C253.347 54.6082 252.729 54.3667 252.223 53.9591C252.143 53.8907 252.093 53.7936 252.084 53.6887C252.074 53.5838 252.106 53.4792 252.172 53.3975C252.239 53.3156 252.336 53.2638 252.441 53.2533C252.546 53.2429 252.652 53.2747 252.733 53.3418C252.733 53.3418 253.531 53.9824 254.222 53.806C254.425 53.7384 254.609 53.625 254.761 53.4744C254.913 53.3239 255.029 53.1403 255.098 52.9379C255.146 52.8468 255.226 52.7774 255.323 52.7442C255.42 52.7109 255.526 52.7164 255.619 52.7594C255.712 52.8024 255.785 52.8797 255.823 52.9752C255.861 53.0707 255.86 53.177 255.822 53.2721C255.706 53.5888 255.516 53.8732 255.269 54.1017C255.021 54.3302 254.723 54.4962 254.398 54.5858C254.267 54.623 254.131 54.6448 253.995 54.6508Z" fill="black"/>
</g>
<g opacity="0.2">
<path d="M271.694 67.2772C271.046 67.2358 270.427 66.9941 269.922 66.5855C269.846 66.5163 269.8 66.4204 269.793 66.3178C269.786 66.2153 269.819 66.1141 269.885 66.0351C269.95 65.9562 270.044 65.9056 270.146 65.894C270.248 65.8824 270.351 65.9106 270.432 65.9728C270.432 65.9728 271.221 66.6087 271.921 66.437C272.124 66.3695 272.308 66.256 272.46 66.1055C272.612 65.9549 272.728 65.7713 272.797 65.5689C272.842 65.473 272.922 65.3986 273.021 65.362C273.12 65.3255 273.23 65.3298 273.326 65.374C273.374 65.3955 273.417 65.4263 273.453 65.4647C273.488 65.5031 273.516 65.5483 273.534 65.5976C273.553 65.6469 273.561 65.6993 273.558 65.7518C273.556 65.8042 273.543 65.8557 273.521 65.9032C273.405 66.2198 273.215 66.5042 272.968 66.7327C272.72 66.9612 272.422 67.1272 272.097 67.2169C271.965 67.2503 271.83 67.2705 271.694 67.2772Z" fill="black"/>
</g>
<path d="M266.245 65.3827C266.059 63.3151 265.685 61.2687 265.128 59.2691C264.605 57.3049 263.797 55.4281 262.73 53.6987C261.709 52.0169 260.24 50.6536 258.487 49.7623C256.719 48.9331 254.758 48.604 252.816 48.8106C250.842 48.9863 248.926 49.5725 247.191 50.5316C245.456 51.4908 243.94 52.8019 242.739 54.3811C241.52 55.9913 240.666 57.8477 240.235 59.8215C239.804 61.8415 239.68 63.9153 239.869 65.9722C239.35 63.9166 239.212 61.7832 239.461 59.6776C239.735 57.517 240.51 55.4505 241.724 53.643C242.958 51.8197 244.582 50.2941 246.478 49.1765C248.374 48.0589 250.495 47.3774 252.686 47.1813C253.79 47.0986 254.9 47.1485 255.992 47.3298C257.101 47.5043 258.174 47.8587 259.169 48.3789C261.135 49.439 262.747 51.0529 263.806 53.021C264.832 54.9032 265.54 56.9422 265.902 59.0556C266.278 61.1423 266.393 63.2676 266.245 65.3827Z" fill="#DCDDE8"/>
<path d="M277.899 292.912C277.899 292.912 262.249 293.21 258.516 289.663V292.912H251.625C251.625 292.912 249.46 281.372 253.128 281.967C256.795 282.561 269.849 292.532 270.141 285.68L275.242 288.321C276.037 288.729 276.704 289.349 277.17 290.113C277.636 290.876 277.881 291.753 277.881 292.648L277.899 292.912Z" fill="#2F2E41"/>
<path d="M199.424 292.912C199.424 292.912 215.075 293.21 218.807 289.663V292.912H225.698C225.698 292.912 227.864 281.372 224.196 281.967C220.528 282.561 207.479 292.532 207.182 285.68L202.081 288.321C201.287 288.73 200.62 289.35 200.155 290.113C199.689 290.877 199.443 291.754 199.443 292.648L199.424 292.912Z" fill="#2F2E41"/>
<g opacity="0.2">
<path d="M259.93 140.19C259.844 140.19 259.761 140.163 259.693 140.112C259.624 140.061 259.574 139.989 259.55 139.907L259.216 138.797C259.196 138.746 259.186 138.691 259.188 138.636C259.19 138.581 259.204 138.527 259.228 138.477C259.252 138.428 259.285 138.383 259.327 138.348C259.369 138.312 259.418 138.285 259.47 138.269C259.523 138.253 259.579 138.248 259.633 138.254C259.688 138.261 259.741 138.278 259.788 138.306C259.836 138.334 259.877 138.371 259.909 138.416C259.942 138.46 259.964 138.511 259.976 138.565L260.324 139.712C260.355 139.813 260.344 139.923 260.295 140.017C260.245 140.11 260.161 140.181 260.06 140.213C260.016 140.211 259.972 140.203 259.93 140.19Z" fill="black"/>
<path d="M262.461 148.62C262.376 148.621 262.292 148.593 262.224 148.542C262.155 148.491 262.105 148.419 262.081 148.337L261.46 146.225C261.439 146.174 261.43 146.119 261.432 146.064C261.434 146.009 261.448 145.955 261.471 145.905C261.495 145.855 261.529 145.811 261.571 145.775C261.613 145.739 261.662 145.713 261.714 145.697C261.767 145.68 261.822 145.675 261.877 145.682C261.932 145.688 261.984 145.706 262.032 145.734C262.079 145.762 262.121 145.799 262.153 145.844C262.185 145.888 262.208 145.939 262.22 145.993L262.86 148.096C262.875 148.146 262.88 148.199 262.874 148.251C262.869 148.303 262.853 148.354 262.828 148.4C262.803 148.446 262.77 148.487 262.729 148.52C262.688 148.553 262.641 148.577 262.591 148.592C262.55 148.61 262.506 148.62 262.461 148.62ZM261.191 144.414C261.105 144.414 261.022 144.386 260.952 144.335C260.883 144.284 260.832 144.213 260.806 144.131L260.184 142.047C260.166 141.996 260.157 141.942 260.16 141.888C260.163 141.834 260.176 141.781 260.2 141.732C260.224 141.683 260.258 141.64 260.299 141.605C260.34 141.569 260.388 141.543 260.44 141.527C260.492 141.511 260.546 141.505 260.6 141.511C260.654 141.517 260.706 141.533 260.753 141.56C260.801 141.586 260.842 141.622 260.875 141.665C260.908 141.708 260.932 141.758 260.945 141.81L261.585 143.918C261.615 144.019 261.604 144.128 261.555 144.221C261.505 144.314 261.421 144.383 261.32 144.414C261.282 144.421 261.243 144.421 261.205 144.414H261.191Z" fill="black"/>
<path d="M263.459 151.869C263.373 151.869 263.29 151.842 263.221 151.791C263.153 151.74 263.102 151.668 263.078 151.586L262.731 150.439C262.7 150.337 262.711 150.228 262.761 150.134C262.811 150.041 262.896 149.971 262.997 149.94C263.099 149.909 263.208 149.92 263.302 149.97C263.395 150.02 263.465 150.105 263.496 150.207L263.843 151.354C263.859 151.404 263.864 151.457 263.859 151.509C263.854 151.562 263.839 151.612 263.814 151.659C263.789 151.705 263.754 151.746 263.713 151.779C263.672 151.812 263.625 151.836 263.575 151.85C263.537 151.864 263.498 151.87 263.459 151.869Z" fill="black"/>
</g>
<g opacity="0.2">
<path d="M269.76 105.207C268.809 108.327 267.35 111.27 265.443 113.915C266.399 110.797 267.858 107.856 269.76 105.207Z" fill="black"/>
</g>
<g opacity="0.2">
<path d="M232.757 113.544C231.122 109.978 229.982 106.205 229.367 102.329C230.201 104.103 230.896 105.939 231.445 107.821C232.028 109.692 232.466 111.606 232.757 113.544Z" fill="black"/>
</g>
<path d="M330.707 140.951V272.803H313.095L310.799 157.815H306.204L297.398 272.803H279.786L287.442 140.951H330.707Z" fill="#DCDDE8"/>
<g opacity="0.2">
<path d="M285.336 93.04C285.499 94.8458 285.577 96.6469 285.642 98.4527C285.707 100.258 285.726 102.064 285.735 103.865C285.744 105.666 285.735 107.477 285.642 109.283L285.531 111.989C285.466 112.889 285.424 113.795 285.336 114.695C285.243 113.795 285.206 112.889 285.141 111.989L285.03 109.283C284.956 107.477 284.947 105.671 284.937 103.865C284.928 102.06 284.937 100.258 285.03 98.4527C285.123 96.6469 285.183 94.8458 285.336 93.04Z" fill="black"/>
</g>
<g opacity="0.2">
<path d="M332.046 93.9966C332.245 97.246 332.352 100.542 332.449 103.814C332.547 107.087 332.57 110.364 332.64 113.637C332.709 116.91 332.672 120.187 332.64 123.46L332.579 128.371C332.528 130.009 332.505 131.648 332.431 133.287C332.324 131.648 332.269 130.014 332.185 128.375L332.018 123.478C331.925 120.201 331.893 116.928 331.833 113.656C331.772 110.383 331.796 107.106 331.833 103.833C331.87 100.56 331.916 97.2739 332.046 93.9966Z" fill="black"/>
</g>
<path d="M293.568 277.403C293.568 277.403 298.353 290.819 294.333 292.722H290.312C290.312 292.722 288.397 287.356 285.717 292.722H261.214C261.214 292.722 259.684 288.507 265.615 286.59C271.546 284.673 281.506 277.389 281.506 277.389L293.568 277.403Z" fill="#DCDDE8"/>
<path d="M294.332 272.803L293.567 277.403H281.505V272.803H294.332Z" fill="#B86A4B"/>
<path d="M316.057 277.403C316.057 277.403 311.272 290.819 315.292 292.722H319.313C319.313 292.722 321.228 287.356 323.908 292.722H348.411C348.411 292.722 349.941 288.507 344.005 286.59C338.07 284.673 328.119 277.389 328.119 277.389L316.057 277.403Z" fill="#DCDDE8"/>
<path d="M315.291 272.803L316.056 277.403H328.118V272.803H315.291Z" fill="#B86A4B"/>
<g opacity="0.2">
<path d="M305.096 157.491C306.376 157.207 307.685 157.073 308.996 157.092C310.307 157.07 311.616 157.204 312.896 157.491C311.615 157.773 310.307 157.906 308.996 157.885C307.685 157.903 306.377 157.771 305.096 157.491Z" fill="black"/>
</g>
<path d="M282.984 112.746L285.335 115.067L285.461 123.422C285.461 123.422 278.426 127.266 276.163 121.101L282.984 112.746Z" fill="#8C4D3E"/>
<path d="M241.223 78.367H237.921V71.2739H241.223V78.367ZM238.519 77.7681H240.625V71.8728H238.519V77.7681Z" fill="#DCDDE8"/>
<path d="M268.286 77.9866H264.984V70.875H268.286V77.9866ZM265.582 77.3878H267.687V71.4878H265.582V77.3878Z" fill="#DCDDE8"/>
<path d="M265.577 71.4874V70.6519H267.589C267.135 71.4299 266.423 72.0244 265.577 72.3323V71.4874Z" fill="#8C4D3E"/>
<path d="M240.667 72.8151V71.2554H238.77C239.199 71.9828 239.871 72.5352 240.667 72.8151Z" fill="#8C4D3E"/>
<path d="M106.306 89.3077L107.322 91.7773C107.561 92.3614 107.644 92.9977 107.562 93.6237C107.481 94.2496 107.238 94.8435 106.858 95.347C106.702 95.5621 106.52 95.757 106.316 95.9273C106.02 96.1864 105.683 96.3936 105.319 96.54L101.734 98.0208C101.608 98.0737 101.478 98.1157 101.345 98.1462C101.108 98.2261 100.861 98.2699 100.612 98.2762C99.8466 98.337 99.0819 98.1525 98.4283 97.7495C97.7747 97.3464 97.2662 96.7456 96.9763 96.0341L95.9886 93.5645C95.7679 93.0271 95.7695 92.4239 95.993 91.8877C96.2165 91.3514 96.6436 90.926 97.1804 90.705L103.464 88.1194C103.998 87.9025 104.597 87.9057 105.129 88.1282C105.661 88.3507 106.084 88.7746 106.306 89.3077Z" fill="#FED4C0"/>
<path d="M106.877 95.3476C106.721 95.5627 106.538 95.7576 106.334 95.9279L104.336 91.2301C104.298 91.1415 104.297 91.0416 104.333 90.9523C104.369 90.8631 104.439 90.7919 104.528 90.7543C104.617 90.7168 104.716 90.716 104.806 90.7521C104.895 90.7882 104.966 90.8583 105.003 90.947L106.877 95.3476Z" fill="#F9C0AA"/>
<path d="M105.123 96.6333L104.45 96.9072L102.387 92.0841C102.359 91.997 102.366 91.9028 102.404 91.8199C102.442 91.7371 102.51 91.6715 102.594 91.6361C102.678 91.6007 102.773 91.598 102.859 91.6285C102.945 91.659 103.016 91.7205 103.059 91.801L105.123 96.6333Z" fill="#F9C0AA"/>
<path d="M103.143 97.4458L102.466 97.7243L100.458 93.0127C100.424 92.9257 100.425 92.8288 100.46 92.7423C100.496 92.6557 100.563 92.5863 100.649 92.5485C100.736 92.5153 100.832 92.5165 100.918 92.5518C101.004 92.5872 101.074 92.654 101.112 92.7388L103.143 97.4458Z" fill="#F9C0AA"/>
<path d="M101.362 98.1465C101.126 98.2263 100.879 98.2702 100.629 98.2764L98.5659 93.4302C98.5324 93.3436 98.5329 93.2476 98.5673 93.1615C98.6018 93.0754 98.6675 93.0055 98.7514 92.9659C98.8387 92.9306 98.9365 92.9313 99.0233 92.9678C99.1102 93.0043 99.1791 93.0737 99.2151 93.1609L101.362 98.1465Z" fill="#F9C0AA"/>
<path d="M270.548 92.6502L269.514 95.1151C269.271 95.6965 268.881 96.2047 268.383 96.5903C267.885 96.9759 267.295 97.2258 266.672 97.3155C266.409 97.3533 266.143 97.3611 265.879 97.3387C265.488 97.311 265.104 97.2185 264.743 97.0648L261.167 95.5654C260.814 95.4091 260.486 95.2011 260.194 94.948C259.608 94.4466 259.197 93.771 259.021 93.0196C258.845 92.2682 258.913 91.4801 259.215 90.7702L260.249 88.3053C260.474 87.7709 260.902 87.3478 261.438 87.1285C261.975 86.9092 262.576 86.9117 263.11 87.1355L269.375 89.7675C269.642 89.8786 269.884 90.0415 270.088 90.2469C270.292 90.4523 270.453 90.696 270.562 90.964C270.671 91.2321 270.726 91.5191 270.724 91.8085C270.721 92.0979 270.662 92.384 270.548 92.6502Z" fill="#FED4C0"/>
<path d="M266.671 97.316C266.409 97.3539 266.143 97.3617 265.878 97.3392L267.793 92.6043C267.83 92.5151 267.9 92.4439 267.989 92.4065C268.077 92.369 268.177 92.3684 268.266 92.4047C268.355 92.441 268.427 92.5113 268.464 92.6001C268.501 92.6889 268.502 92.789 268.466 92.8782L266.671 97.316Z" fill="#F9C0AA"/>
<path d="M264.529 96.9765L263.852 96.6934L265.813 91.8285C265.85 91.7421 265.919 91.6735 266.006 91.6371C266.092 91.6008 266.189 91.5995 266.277 91.6335C266.321 91.6504 266.361 91.6759 266.395 91.7086C266.429 91.7412 266.456 91.7803 266.474 91.8236C266.493 91.8668 266.503 91.9134 266.503 91.9605C266.503 92.0075 266.494 92.0542 266.476 92.0977L264.529 96.9765Z" fill="#F9C0AA"/>
<path d="M262.548 96.1457L261.876 95.8625L263.801 91.1137C263.817 91.0693 263.842 91.0288 263.875 90.9946C263.907 90.9604 263.946 90.9333 263.99 90.915C264.033 90.8967 264.08 90.8876 264.127 90.8882C264.175 90.8889 264.221 90.8992 264.264 90.9187C264.35 90.9566 264.418 91.0255 264.455 91.1116C264.492 91.1977 264.495 91.2946 264.464 91.3829L262.548 96.1457Z" fill="#F9C0AA"/>
<path d="M260.801 95.3804C260.58 95.2651 260.376 95.1198 260.194 94.9487L262.169 90.056C262.205 89.9687 262.274 89.8987 262.36 89.8606C262.447 89.8226 262.544 89.8194 262.633 89.8517C262.721 89.8868 262.791 89.9554 262.829 90.0425C262.866 90.1295 262.867 90.2279 262.832 90.3159L260.801 95.3804Z" fill="#F9C0AA"/>
<path d="M330.971 75.3028L329.937 77.7631C329.694 78.3449 329.304 78.8536 328.806 79.2394C328.307 79.6251 327.718 79.8746 327.094 79.9634C326.832 80.0059 326.565 80.0137 326.301 79.9866C325.91 79.9606 325.526 79.8696 325.165 79.7174L321.59 78.2134C321.461 78.1646 321.339 78.1024 321.223 78.0277C321.001 77.9156 320.797 77.7717 320.616 77.6006C320.03 77.0987 319.62 76.4231 319.444 75.6719C319.268 74.9207 319.336 74.1328 319.637 73.4228L320.672 70.9625C320.897 70.4282 321.324 70.005 321.861 69.7857C322.397 69.5664 322.998 69.5689 323.533 69.7927L329.797 72.4247C330.064 72.5358 330.306 72.6986 330.509 72.9036C330.712 73.1087 330.873 73.3519 330.982 73.6194C331.091 73.8869 331.146 74.1734 331.144 74.4623C331.142 74.7512 331.083 75.0368 330.971 75.3028Z" fill="#8C4D3E"/>
<path d="M327.094 79.9639C326.832 80.0064 326.566 80.0142 326.301 79.9871L328.217 75.2522C328.252 75.1651 328.321 75.0957 328.408 75.0591C328.495 75.0226 328.593 75.0219 328.68 75.0573C328.768 75.0925 328.839 75.1608 328.877 75.2476C328.915 75.3344 328.918 75.4328 328.884 75.5215L327.094 79.9639Z" fill="#874032"/>
<path d="M324.951 79.6252L324.279 79.3466L326.24 74.4771C326.278 74.3915 326.347 74.3236 326.434 74.2874C326.52 74.2511 326.617 74.2493 326.704 74.2822C326.79 74.3191 326.859 74.3882 326.895 74.4748C326.932 74.5615 326.933 74.6588 326.899 74.7464L324.951 79.6252Z" fill="#874032"/>
<path d="M322.971 78.7984L322.303 78.5152L324.223 73.7664C324.24 73.7225 324.266 73.6823 324.298 73.6484C324.331 73.6144 324.37 73.5873 324.413 73.5687C324.456 73.5501 324.503 73.5404 324.55 73.54C324.597 73.5397 324.643 73.5488 324.687 73.5668C324.774 73.6029 324.844 73.6716 324.881 73.7584C324.918 73.8451 324.92 73.9429 324.886 74.031L322.971 78.7984Z" fill="#874032"/>
<path d="M321.222 78.0281C321 77.916 320.796 77.7721 320.615 77.601L322.59 72.7176C322.627 72.6303 322.695 72.5603 322.781 72.5223C322.868 72.4842 322.965 72.481 323.054 72.5133C323.098 72.5302 323.138 72.5557 323.172 72.5883C323.206 72.621 323.233 72.6601 323.252 72.7033C323.27 72.7466 323.28 72.7931 323.28 72.8402C323.281 72.8873 323.271 72.934 323.254 72.9775L321.222 78.0281Z" fill="#874032"/>
<path d="M240.611 86.3418L241.571 88.8346C241.798 89.422 241.87 90.0584 241.778 90.6817C241.686 91.305 241.434 91.8938 241.047 92.3904C240.885 92.6014 240.698 92.7917 240.49 92.9567C240.19 93.2093 239.85 93.4101 239.484 93.5509L235.862 94.9435C235.736 94.9934 235.606 95.0322 235.473 95.0595C235.234 95.1323 234.986 95.1714 234.736 95.1756C233.97 95.2187 233.21 95.0171 232.565 94.6C231.921 94.1828 231.426 93.5717 231.151 92.8546L230.191 90.3618C230.088 90.0936 230.039 89.8077 230.046 89.5204C230.053 89.2331 230.117 88.95 230.234 88.6875C230.351 88.4249 230.518 88.188 230.726 87.9902C230.935 87.7924 231.18 87.6376 231.448 87.5348L237.787 85.0884C238.054 84.9851 238.34 84.9355 238.627 84.9426C238.913 84.9496 239.196 85.0131 239.458 85.1295C239.72 85.2459 239.957 85.4129 240.155 85.6209C240.353 85.8289 240.508 86.0738 240.611 86.3418Z" fill="#B86A4B"/>
<path d="M241.048 92.4091C240.886 92.6202 240.699 92.8104 240.491 92.9755L238.595 88.236C238.561 88.1478 238.563 88.05 238.6 87.9633C238.637 87.8766 238.707 87.8078 238.794 87.7718C238.882 87.7392 238.98 87.7417 239.066 87.7789C239.152 87.816 239.221 87.8849 239.258 87.9714L241.048 92.4091Z" fill="#B2593D"/>
<path d="M239.275 93.6529L238.593 93.9175L236.641 89.048C236.609 88.9587 236.613 88.8603 236.652 88.7738C236.691 88.6872 236.762 88.6191 236.85 88.5838C236.894 88.5666 236.94 88.5582 236.987 88.5592C237.035 88.5601 237.081 88.5704 237.124 88.5894C237.167 88.6083 237.206 88.6357 237.239 88.6698C237.271 88.7039 237.297 88.7441 237.313 88.7881L239.275 93.6529Z" fill="#B2593D"/>
<path d="M237.268 94.4238L236.586 94.6884L234.685 89.9303C234.667 89.8868 234.658 89.8401 234.658 89.793C234.659 89.7459 234.668 89.6994 234.687 89.6561C234.706 89.6128 234.733 89.5737 234.767 89.5411C234.8 89.5085 234.841 89.483 234.884 89.4661C234.973 89.4335 235.07 89.436 235.156 89.4732C235.242 89.5103 235.311 89.5793 235.348 89.6657L237.268 94.4238Z" fill="#B2593D"/>
<path d="M235.473 95.083C235.234 95.1558 234.986 95.1948 234.736 95.199L232.784 90.3063C232.752 90.218 232.755 90.1211 232.792 90.035C232.829 89.949 232.897 89.88 232.983 89.8421C233.072 89.8088 233.171 89.8121 233.258 89.8512C233.345 89.8903 233.413 89.9621 233.447 90.051L235.473 95.083Z" fill="#B2593D"/>
</svg>
